<svg class="LogoSVG" viewBox="0 0 560 100" xmlns="http://www.w3.org/2000/svg">   
    <g id="Textos">
      <path id="San_Benito" class="st0" d="M158.7,40.5l-7,8.2c-4-3.2-8-4.8-12.7-4.8c-4.5,0-7,1.8-7,4.9c0,3.3,2.2,4.5,10.9,7.3
        c11.5,3.6,17.3,8.5,17.3,19c0,10.9-8.9,18.6-23.8,18.6c-10.6,0-17.9-3.8-22.7-8.4l7.6-8.4c4.3,3.5,8.9,5.7,14.5,5.7
        c5.4,0,8.3-2.5,8.3-6.3c0-3.8-2-5.5-10.1-7.9c-13.6-4.3-17.9-9.9-17.9-18.4c0-10.6,9.3-17.3,21.8-17.3
        C146.9,32.8,153.5,35.6,158.7,40.5z M193.9,80.5h-15.4l-2.6,11.9h-16.1l17.3-58h18.6l17.3,58h-16.4L193.9,80.5z M191.5,69.5
        l-5.3-24.1L181,69.5H191.5z M261.9,92.4h-19.5l-14.7-43.7c0.8,5.5,2,13.3,2,24.1v19.6h-13.7v-58H235l15.3,43.8
        c-0.9-5.8-2.1-12.9-2.1-22.8v-21h13.7V92.4z M335.7,75.3c0,13.4-11.1,17-26.1,17h-19.6v-58h17.3c15.9,0,25.9,3.8,25.9,14.9
        c0,7.4-5.4,11-10.6,12.4C329.1,63,335.7,66.1,335.7,75.3z M305.6,45.1v12.1h4c5.4,0,8-1.9,8-6.3c0-4.2-2.6-5.8-8.7-5.8H305.6z
        M319.7,74.4c0-5.3-3.4-7.3-9.1-7.3h-5v14.2h4.2C315.6,81.3,319.7,80.2,319.7,74.4z M377.3,45.3h-19.9v12.4h17.3v10.6h-17.3v13.2
        h21.2v10.9h-36.7v-58h37L377.3,45.3z M431.8,92.4h-19.5l-14.7-43.7c0.8,5.5,2,13.3,2,24.1v19.6h-13.7v-58h19.1l15.3,43.8
        c-0.9-5.8-2.1-12.9-2.1-22.8v-21h13.7V92.4z M456.3,92.4h-15.5v-58h15.5V92.4z M505.2,46.1h-13.7v46.3H476V46.1h-14.6V34.3h45.4
        L505.2,46.1z M559.4,63.3c0,18.9-9.8,30.6-26.7,30.6S506,82.6,506,63.3c0-18.9,9.7-30.5,26.7-30.5S559.4,44,559.4,63.3z
        M522.1,63.3c0,14,3.5,19.5,10.6,19.5c7.3,0,10.6-5.4,10.6-19.5c0-14-3.4-19.4-10.6-19.4C525.5,43.9,522.1,49.3,522.1,63.3z"/>
      <path id="Ciudad" class="st0" d="M128.7,18c0,2.5-1.2,3.9-3.6,3.9c-2.4,0-3.6-1.4-3.6-3.9v-8c0-2.5,1.2-3.9,3.6-3.9
        c2.4,0,3.6,1.4,3.6,3.9v1.5h-2.3V9.8c0-1.1-0.5-1.5-1.3-1.5s-1.3,0.4-1.3,1.5v8.3c0,1.1,0.5,1.5,1.3,1.5s1.3-0.4,1.3-1.5v-2.2h2.3
        V18z M135.9,6.3v15.3h-2.4V6.3H135.9z M143.3,18.1c0,1.1,0.5,1.5,1.3,1.5c0.8,0,1.3-0.4,1.3-1.5V6.3h2.3V18c0,2.5-1.2,3.9-3.6,3.9
        c-2.4,0-3.6-1.4-3.6-3.9V6.3h2.4V18.1z M156.9,6.3c2.4,0,3.6,1.3,3.6,3.8v7.8c0,2.5-1.2,3.8-3.6,3.8h-3.8V6.3H156.9z M155.5,19.4
        h1.4c0.8,0,1.2-0.4,1.2-1.5v-8c0-1.1-0.5-1.5-1.2-1.5h-1.4V19.4z M170.8,21.6l-0.4-2.8h-3l-0.4,2.8h-2.2l2.5-15.3h3.5l2.5,15.3
        H170.8z M170.1,16.8L168.9,9l-1.2,7.8H170.1z M181.5,6.3c2.4,0,3.6,1.3,3.6,3.8v7.8c0,2.5-1.2,3.8-3.6,3.8h-3.8V6.3H181.5z
        M180.1,19.4h1.4c0.8,0,1.2-0.4,1.2-1.5v-8c0-1.1-0.5-1.5-1.2-1.5h-1.4V19.4z M200.6,6.3c2.4,0,3.6,1.3,3.6,3.8v7.8
        c0,2.5-1.2,3.8-3.6,3.8h-3.8V6.3H200.6z M199.2,19.4h1.4c0.8,0,1.2-0.4,1.2-1.5v-8c0-1.1-0.5-1.5-1.2-1.5h-1.4V19.4z M214.8,12.8
        V15h-3.3v4.5h4.2v2.2H209V6.3h6.6v2.2h-4.2v4.3H214.8z"/>
    </g>
    <g id="Logo_1_">
      <circle id="Cielo" class="st1" cx="50" cy="50" r="50"/>
      <path id="Suelo1" class="st2" d="M97.5,65.8c-14.4-1.3-29.8-0.1-45.5,3.9c-13.8,3.5-26.3,8.9-37.3,15.7c9.1,9,21.5,14.6,35.3,14.6
        C72.1,100,90.9,85.7,97.5,65.8"/>
      <path id="Suelo2" class="st3" d="M14.7,85.4c11-6.8,23.6-12.2,37.3-15.7c15.6-4,31.1-5.2,45.5-3.9c0.3-0.8,0.5-1.7,0.8-2.6
        c-14.3-5.7-30.8-9-48.2-9s-33.9,3.3-48.2,9C4.1,71.7,8.6,79.3,14.7,85.4"/>
      <path id="Sol" class="st4" d="M75.3,30.9c-14.1,0-25.8,10-28.4,23.3c1.1,0,2.1,0,3.2,0c17.4,0,33.8,3.3,48.1,9
        C99.4,59,100,54.6,100,50c0-2-0.1-3.9-0.3-5.8C94.5,36.2,85.6,30.9,75.3,30.9z"/>
      <path id="Paloma" class="st5" d="M27.5,30.8L27.5,30.8c2.1-0.8,3.5-2.2,4.6-4c0.9-1.5,1.3-3.1,1.6-4.8c3.2,3.4,2.5,11.1-3.7,13.4
        c0.8,0,1.5-0.2,2.1-0.5c0.4-0.2,0.8-0.3,1.3,0c1.5,0.7,3,0.6,4.5,0.2c0.7-0.2,0.7-0.1,0.8,0.6c0.2,1.2-0.3,2.1-1.1,2.9
        c-0.2,0.2-0.5,0.4-0.7,0.5c-1.1,0.7-1.1,0.7-2-0.3c-0.6-0.7-1.4-1.2-2.2-1.5c-0.3-0.1-0.5-0.1-0.7,0c-2.9,0.6-5.4-0.2-7.4-2.4
        c-0.4-0.4-0.8-0.8-1.1-1.1c-1.1-1.1-2.3-1.9-3.9-0.8c-0.1-0.3-0.1-0.5,0-0.6c0.4-0.4,0.4-1,0.6-1.5c0.2-0.7,0.8-1.1,1.7-1.1
        c0.6,0,1.1,0.2,1.7,0.5c0.4,0.2,0.8,0.5,1.3,0.5c-0.2-2.4-0.8-4.6-2.1-6.7c0.7,0,1.4,0.3,2,0.6c1.3,0.6,2.3,1.5,3.1,2.6
        c0.5,0.6,1,1.2,1.3,1.9c0.1,0.2,0,0.4-0.1,0.5c-0.5,0.3-1,0.7-1.4,1c-0.1,0-0.2,0.1-0.2,0.2C27.3,30.8,27.4,30.8,27.5,30.8"/>
    </g>

    <style type="text/css">
        .st0{fill:#4D4D4D;}
        .st1{fill:#7BCBE2;}
        .st2{fill:#B6C544;}
        .st3{fill:#076633;}
        .st4{fill:#FBD300;}
        .st5{fill:#FFFFFF;}
    </style>
  </svg>